# Blender v2.91.2 OBJ File: ''
# www.blender.org
mtllib cone1.mtl
o Cube.000_Cube.012
v 1.142352 0.152799 1.142352
v 0.000000 0.152799 1.142352
v 0.000000 0.152799 0.672464
v 0.475504 0.152799 0.475503
v -1.142353 0.252138 -0.000001
v -1.142353 0.252138 1.142352
v -0.582403 0.252138 0.582403
v -0.823642 0.252138 -0.000001
v 1.142352 0.152799 -0.000001
v 1.142352 0.252138 0.000000
v 1.142352 0.252138 1.142353
v -0.000001 0.252138 1.142352
v -1.142353 0.152799 1.142352
v -1.142352 0.152799 -0.000001
v -1.142352 0.252138 -1.142353
v -1.142352 0.152799 -1.142354
v 0.000000 0.252138 -1.142353
v 0.000000 0.152799 -1.142353
v -0.538141 2.163109 -0.000000
v -0.380523 2.163109 0.380522
v -0.271873 3.225078 0.271873
v -0.384486 3.225078 -0.000000
v 0.582403 0.252138 0.582403
v 0.000000 0.252138 0.823642
v -0.582403 0.252138 -0.582404
v 0.000000 0.252138 -0.823642
v 1.142353 0.252138 -1.142353
v 0.582403 0.252138 -0.582404
v 0.823642 0.252138 0.000000
v 0.380523 2.163109 -0.380522
v 0.000000 2.163109 -0.538141
v 0.000000 3.225078 -0.384486
v 0.271872 3.225078 -0.271873
v 1.142352 0.152799 -1.142353
v 0.672464 0.152799 -0.000001
v -0.475504 0.152799 -0.475504
v -0.672464 0.152799 -0.000001
v 0.380522 2.163109 0.380523
v 0.538140 2.163109 0.000001
v 0.384486 3.225078 0.000001
v 0.271872 3.225078 0.271873
v 0.000000 2.163109 0.538141
v 0.000000 3.225078 0.384486
v 0.475504 0.152799 -0.475504
v 0.000000 3.225078 0.000001
v -0.271873 3.225078 -0.271873
v -0.380523 2.163109 -0.380523
v 0.344512 2.465971 -0.000000
v 0.243607 2.465971 -0.243607
v 0.243606 2.465971 0.243605
v -0.475504 0.152799 0.475503
v -0.344511 2.465971 -0.000001
v -0.243606 2.465971 0.243605
v 0.000000 0.152799 -0.672465
v 0.000000 2.465971 -0.344512
v -0.243606 2.465971 -0.243607
v 0.000000 2.465971 -0.000000
v 0.000000 2.465971 0.344511
v -0.500939 1.019589 -0.500939
v 0.000000 1.019589 -0.708435
v 0.000000 1.019589 0.708435
v -0.500939 1.019589 0.500939
v 0.500939 1.019589 -0.500939
v 0.708434 1.019589 0.000000
v -0.708435 1.019589 -0.000000
v 0.500939 1.019589 0.500939
vt 1.000000 0.092749
vt 1.000000 0.139124
vt 0.942863 0.139124
vt 0.925003 0.122194
vt 0.881884 0.092749
vt 0.763767 0.092749
vt 0.829071 0.067110
vt 0.881884 0.075698
vt 0.856823 0.323731
vt 0.949878 0.323735
vt 0.949878 0.369218
vt 0.856823 0.369214
vt 0.856823 0.324622
vt 0.763767 0.324622
vt 0.763767 0.278247
vt 0.856823 0.278247
vt 0.949878 0.231873
vt 0.856823 0.231873
vt 0.856823 0.185498
vt 0.949878 0.185498
vt 0.763767 0.231873
vt 0.856823 0.231873
vt 0.856823 0.278247
vt 0.763767 0.278247
vt 0.158438 0.749999
vt 0.182479 0.750002
vt 0.172889 1.000000
vt 0.158438 0.999998
vt 0.763767 0.046375
vt 0.763767 0.000000
vt 0.829071 0.025639
vt 0.807195 0.046375
vt 1.000000 0.046375
vt 1.000000 0.092749
vt 0.934696 0.067110
vt 0.956572 0.046375
vt 0.881884 0.000000
vt 1.000000 0.000000
vt 0.934696 0.025639
vt 0.881884 0.017051
vt 0.240023 0.750002
vt 0.264064 0.749998
vt 0.264064 0.999998
vt 0.249613 1.000000
vt 0.949878 0.278247
vt 0.856823 0.278247
vt 0.856823 0.278247
vt 0.949878 0.278251
vt 0.881884 0.092749
vt 0.881884 0.115182
vt 0.881884 0.185498
vt 0.763767 0.185498
vt 0.838765 0.156053
vt 0.881884 0.163065
vt 0.350510 0.749998
vt 0.372147 0.749995
vt 0.374727 0.999994
vt 0.361722 0.999995
vt 0.052813 0.749999
vt 0.076854 0.750002
vt 0.067263 1.000000
vt 0.052813 0.999998
vt 0.763767 0.185498
vt 0.856823 0.185498
vt 0.856823 0.370996
vt 0.763767 0.370996
vt 0.763767 0.092749
vt 0.838765 0.122194
vt 0.875703 0.376631
vt 0.883524 0.384044
vt 0.867883 0.384044
vt 0.856823 0.379702
vt 0.894583 0.373561
vt 0.894583 0.379702
vt 0.883524 0.369218
vt 0.867883 0.369218
vt 0.856823 0.373561
vt 0.134397 0.750002
vt 0.143988 1.000000
vt 0.397669 0.749997
vt 0.390067 0.999995
vt 0.028772 0.750002
vt 0.038363 1.000000
vt 0.288105 0.750002
vt 0.278514 1.000000
vt 0.506710 0.850738
vt 0.463591 0.850732
vt 0.463590 0.000000
vt 0.477869 0.000002
vt 0.420472 0.850738
vt 0.449311 0.000002
vt 0.763767 0.850740
vt 0.717993 0.850736
vt 0.726200 0.000000
vt 0.741359 0.000001
vt 0.592948 0.850738
vt 0.549829 0.850732
vt 0.549829 0.000000
vt 0.564108 0.000002
vt 1.000000 0.185498
vt 0.925003 0.156053
vt 0.763767 0.139124
vt 0.820904 0.139124
vt 0.913240 0.376543
vt 0.931896 0.379577
vt 0.920968 0.383868
vt 0.905512 0.383868
vt 0.894583 0.373509
vt 0.894583 0.379577
vt 0.905512 0.369218
vt 0.920968 0.369218
vt 0.931896 0.373509
vt 0.679186 0.850738
vt 0.636067 0.850732
vt 0.636067 0.000000
vt 0.650346 0.000002
vt 0.679186 0.850738
vt 0.713349 0.000001
vt 0.535550 0.000002
vt 0.592948 0.850738
vt 0.621788 0.000002
vt 0.264063 0.000000
vt 0.316876 0.000007
vt 0.297695 0.500003
vt 0.264064 0.499999
vt 0.000000 0.000007
vt 0.052813 0.000000
vt 0.052813 0.499999
vt 0.019181 0.500003
vt 0.364407 0.000000
vt 0.420472 0.000005
vt 0.405270 0.500000
vt 0.369567 0.499997
vt 0.105625 0.000007
vt 0.158438 0.000000
vt 0.158438 0.499999
vt 0.124807 0.500003
vt 0.105625 0.000007
vt 0.086444 0.500003
vt 0.316876 0.000007
vt 0.339299 0.500000
vt 0.211251 0.000007
vt 0.230432 0.500003
vt 0.211251 0.000007
vt 0.192070 0.500003
vn 0.0000 -1.0000 0.0000
vn 0.0000 1.0000 -0.0000
vn 1.0000 -0.0000 0.0000
vn -0.0000 -0.0000 1.0000
vn -1.0000 -0.0000 -0.0000
vn 0.0000 0.0000 -1.0000
vn -0.9155 0.1345 0.3792
vn -0.9157 0.1325 0.3793
vn 0.3792 0.1345 -0.9155
vn 0.3793 0.1325 -0.9157
vn 0.9155 0.1345 0.3792
vn 0.9157 0.1325 0.3793
vn 0.3792 0.1345 0.9155
vn 0.3793 0.1325 0.9157
vn -0.9155 0.1345 -0.3792
vn -0.9157 0.1325 -0.3793
vn 0.9155 0.1345 -0.3792
vn 0.9157 0.1325 -0.3793
vn -0.3792 0.1345 0.9155
vn -0.3793 0.1325 0.9157
vn -0.3792 0.1345 -0.9155
vn -0.3793 0.1325 -0.9157
vn -0.9161 -0.1299 0.3794
vn -0.9161 -0.1299 -0.3794
vn 0.9161 -0.1299 -0.3794
vn 0.3794 -0.1299 0.9161
vn -0.3794 -0.1299 -0.9161
vn 0.9161 -0.1299 0.3794
vn -0.3794 -0.1299 0.9161
vn 0.3794 -0.1299 -0.9161
vn -0.3791 0.1374 -0.9151
vn -0.3791 0.1369 -0.9152
vn -0.3791 0.1374 0.9151
vn -0.3791 0.1369 0.9152
vn 0.9151 0.1374 -0.3791
vn 0.9152 0.1369 -0.3791
vn -0.9151 0.1374 -0.3791
vn -0.9152 0.1369 -0.3791
vn 0.3791 0.1374 0.9151
vn 0.3791 0.1369 0.9152
vn 0.9151 0.1374 0.3791
vn 0.9152 0.1369 0.3791
vn 0.3791 0.1374 -0.9151
vn 0.3791 0.1369 -0.9152
vn -0.9151 0.1374 0.3791
vn -0.9152 0.1369 0.3791
usemtl orange
s 1
f 1/1/1 2/2/1 3/3/1 4/4/1
f 5/5/2 6/6/2 7/7/2 8/8/2
f 9/9/3 10/10/3 11/11/3 1/12/3
f 2/13/4 12/14/4 6/15/4 13/16/4
f 14/17/5 5/18/5 15/19/5 16/20/5
f 17/21/6 18/22/6 16/23/6 15/24/6
f 19/25/7 20/26/7 21/27/8 22/28/8
f 12/29/2 11/30/2 23/31/2 24/32/2
f 17/33/2 15/34/2 25/35/2 26/36/2
f 10/37/2 27/38/2 28/39/2 29/40/2
f 11/30/2 10/37/2 29/40/2 23/31/2
f 30/41/9 31/42/9 32/43/10 33/44/10
f 13/45/5 6/46/5 5/18/5 14/17/5
f 34/47/3 27/48/3 10/10/3 9/9/3
f 15/34/2 5/5/2 8/8/2 25/35/2
f 9/49/1 1/1/1 4/4/1 35/50/1
f 14/51/1 16/52/1 36/53/1 37/54/1
f 38/55/11 39/56/11 40/57/12 41/58/12
f 27/38/2 17/33/2 26/36/2 28/39/2
f 6/6/2 12/29/2 24/32/2 7/7/2
f 42/59/13 38/60/13 41/61/14 43/62/14
f 27/63/6 34/64/6 18/22/6 17/21/6
f 1/65/4 11/66/4 12/14/4 2/13/4
f 34/67/1 9/49/1 35/50/1 44/68/1
f 45/69/2 22/70/2 21/71/2 43/72/2
f 32/73/2 46/74/2 22/70/2 45/69/2
f 33/75/2 32/73/2 45/69/2 40/76/2
f 40/76/2 45/69/2 43/72/2 41/77/2
f 47/78/15 19/25/15 22/28/16 46/79/16
f 39/56/17 30/80/17 33/81/18 40/57/18
f 20/82/19 42/59/19 43/62/20 21/83/20
f 31/42/21 47/84/21 46/85/22 32/43/22
f 44/86/23 35/87/23 48/88/23 49/89/23
f 35/87/24 4/90/24 50/91/24 48/88/24
f 51/92/25 37/93/25 52/94/25 53/95/25
f 36/96/26 54/97/26 55/98/26 56/99/26
f 2/2/1 13/100/1 51/101/1 3/3/1
f 18/102/1 34/67/1 44/68/1 54/103/1
f 13/100/1 14/51/1 37/54/1 51/101/1
f 16/52/1 18/102/1 54/103/1 36/53/1
f 57/104/1 58/105/1 53/106/1 52/107/1
f 55/108/1 57/104/1 52/107/1 56/109/1
f 49/110/1 48/111/1 57/104/1 55/108/1
f 48/111/1 50/112/1 58/105/1 57/104/1
f 4/113/27 3/114/27 58/115/27 50/116/27
f 37/93/28 36/117/28 56/118/28 52/94/28
f 54/97/29 44/86/29 49/119/29 55/98/29
f 3/114/30 51/120/30 53/121/30 58/115/30
f 26/122/31 25/123/31 59/124/32 60/125/32
f 7/126/33 24/127/33 61/128/34 62/129/34
f 29/130/35 28/131/35 63/132/36 64/133/36
f 25/134/37 8/135/37 65/136/38 59/137/38
f 24/127/39 23/138/39 66/139/40 61/128/40
f 23/140/41 29/130/41 64/133/42 66/141/42
f 28/142/43 26/122/43 60/125/44 63/143/44
f 8/135/45 7/144/45 62/145/46 65/136/46
usemtl white
f 60/125/32 59/124/32 47/84/21 31/42/21
f 62/129/34 61/128/34 42/59/19 20/82/19
f 64/133/36 63/132/36 30/80/17 39/56/17
f 59/137/38 65/136/38 19/25/15 47/78/15
f 61/128/40 66/139/40 38/60/13 42/59/13
f 66/141/42 64/133/42 39/56/11 38/55/11
f 63/143/44 60/125/44 31/42/9 30/41/9
f 65/136/46 62/145/46 20/26/7 19/25/7
